HIERARCHY
ROOT Hips
{
 OFFSET 0.000000 0.000000 0.000000
 CHANNELS 6 Xposition Yposition Zposition Yrotation Xrotation Zrotation
 JOINT Chest
 {
  OFFSET 0.000000 9.585900 0.002600
  CHANNELS 3 Yrotation Xrotation Zrotation
  JOINT Chest2
  {
   OFFSET 0.000000 9.601200 -0.005300
   CHANNELS 3 Yrotation Xrotation Zrotation
   JOINT Chest3
   {
    OFFSET 0.000000 9.561800 0.000000
    CHANNELS 3 Yrotation Xrotation Zrotation
    JOINT Chest4
    {
     OFFSET 0.000000 9.552100 0.000000
     CHANNELS 3 Yrotation Xrotation Zrotation
     JOINT Neck
     {
      OFFSET 0.000000 14.453000 0.000000
      CHANNELS 3 Yrotation Xrotation Zrotation
      JOINT Head
      {
       OFFSET 0.000000 8.936500 -0.011300
       CHANNELS 3 Yrotation Xrotation Zrotation
       End Site
       {
        OFFSET 0.000000 17.073600 -0.006000
       }
      }
     }
     JOINT RightCollar
     {
      OFFSET -2.921100 9.558500 0.000000
      CHANNELS 3 Yrotation Xrotation Zrotation
      JOINT RightShoulder
      {
       OFFSET -13.519700 0.000000 0.000000
       CHANNELS 3 Yrotation Xrotation Zrotation
       JOINT RightElbow
       {
        OFFSET 0.000000 -29.696600 0.000000
        CHANNELS 3 Yrotation Xrotation Zrotation
        JOINT RightWrist
        {
         OFFSET 0.000000 -24.004700 0.000000
         CHANNELS 3 Yrotation Xrotation Zrotation
         End Site
         {
          OFFSET 0.000000 -17.728500 0.000000
         }
        }
       }
      }
     }
     JOINT LeftCollar
     {
      OFFSET 2.921100 9.558500 0.000000
      CHANNELS 3 Yrotation Xrotation Zrotation
      JOINT LeftShoulder
      {
       OFFSET 13.519700 0.000000 0.000000
       CHANNELS 3 Yrotation Xrotation Zrotation
       JOINT LeftElbow
       {
        OFFSET 0.000000 -29.696600 0.000000
        CHANNELS 3 Yrotation Xrotation Zrotation
        JOINT LeftWrist
        {
         OFFSET 0.000000 -24.004700 0.000000
         CHANNELS 3 Yrotation Xrotation Zrotation
         End Site
         {
          OFFSET 0.000000 -17.728500 0.000000
         }
        }
       }
      }
     }
    }
   }
  }
 }
 JOINT RightHip
 {
  OFFSET -7.771700 -0.012900 -0.001300
  CHANNELS 3 Yrotation Xrotation Zrotation
  JOINT RightKnee
  {
   OFFSET 0.000000 -40.869800 0.001200
   CHANNELS 3 Yrotation Xrotation Zrotation
   JOINT RightAnkle
   {
    OFFSET 0.000000 -39.717900 0.002100
    CHANNELS 3 Yrotation Xrotation Zrotation
    JOINT RightToe
    {
     OFFSET 0.000000 -4.965400 11.033500
     CHANNELS 3 Yrotation Xrotation Zrotation
     End Site
     {
      OFFSET 0.000000 -1.423100 5.872300
     }
    }
   }
  }
 }
 JOINT LeftHip
 {
  OFFSET 7.771700 -0.012900 -0.001300
  CHANNELS 3 Yrotation Xrotation Zrotation
  JOINT LeftKnee
  {
   OFFSET 0.000000 -40.869800 0.001200
   CHANNELS 3 Yrotation Xrotation Zrotation
   JOINT LeftAnkle
   {
    OFFSET 0.000000 -39.717900 0.002100
    CHANNELS 3 Yrotation Xrotation Zrotation
    JOINT LeftToe
    {
     OFFSET 0.000000 -4.965400 11.033500
     CHANNELS 3 Yrotation Xrotation Zrotation
     End Site
     {
      OFFSET 0.000000 -1.423100 5.872300
     }
    }
   }
  }
 }
}
MOTION
Frames: 8
Frame Time: 0.008333
0.000000 85.388000 0.000000 0.000000 -5.767877 0.000000 0.000000 11.653817 0.000000 0.000000 -5.885947 0.000000 0.000000 -0.000000 0.000000 0.000000 -0.000000 0.000000 0.000000 12.528835 0.000000 0.000000 0.711642 0.000000 0.000000 -0.000000 0.000000 0.000000 0.000000 -90.000000 0.000000 -2.309062 0.000000 0.000000 2.309062 0.000000 0.000000 -0.000000 0.000000 0.000000 -0.000000 90.000000 0.000000 -2.309062 0.000000 0.000000 2.309062 0.000000 0.000000 8.520406 0.000000 0.000000 1.905762 0.000000 -0.000000 -4.658285 0.000000 0.000000 -0.000000 0.000000 0.000000 8.520406 0.000000 0.000000 1.905762 0.000000 -0.000000 -4.658285 0.000000 0.000000 -0.000000 0.000000
-20.280308 57.437263 30.401197 167.871933 -46.016581 -0.519343 5.896103 26.775160 4.181575 0.944394 4.909849 0.350663 1.491466 7.753375 0.569193 4.669550 22.205597 2.280005 1.523700 15.202545 -1.432263 3.389236 -7.507276 -3.233199 5.370819 3.160572 0.067667 30.116215 -40.454193 -25.309479 34.324550 -37.876340 -16.144893 7.418415 -5.049492 -35.770427 -9.282007 0.238750 -1.750786 -16.608913 -32.981051 11.248429 -57.686543 -48.379416 39.542264 -25.497619 0.861245 27.134762 9.576301 -29.104719 4.035908 -7.890759 68.982824 -4.353963 -1.303127 15.486133 -3.118261 -0.520745 -10.078136 5.929539 -1.848076 -32.811481 1.694744 33.477925 67.300729 30.013228 -5.849875 27.108431 3.416460 -0.771597 -12.113658 -2.022690
-20.276177 57.439218 30.401453 167.847576 -46.039537 -0.506994 5.924339 26.788780 4.206835 0.943231 4.910541 0.348388 1.485384 7.759318 0.562159 4.673122 22.204008 2.284109 1.527445 15.196711 -1.427403 3.381203 -7.511889 -3.231386 5.389592 3.144478 0.075098 30.112860 -40.438988 -25.308272 34.346088 -37.874962 -16.152457 7.429413 -5.061388 -35.743162 -9.282784 0.242653 -1.748928 -16.622052 -32.971706 11.244990 -57.750807 -48.354804 39.640431 -25.464429 0.857064 27.100665 9.631302 -29.087131 4.057083 -7.963429 68.977831 -4.422459 -1.305440 15.493707 -3.096307 -0.520739 -10.082136 5.933502 -1.778545 -32.777933 1.657534 33.464316 67.274447 30.029720 -5.276609 27.088668 3.352935 -0.572744 -12.135595 -1.903090
-20.264154 57.440418 30.404407 167.829454 -46.058132 -0.547689 5.971437 26.792383 4.280782 0.941060 4.915024 0.347807 1.487184 7.754362 0.563724 4.672544 22.203483 2.286218 1.524434 15.196094 -1.426271 3.375435 -7.513132 -3.227985 5.386666 3.151232 0.073604 30.138946 -40.439636 -25.313154 34.365122 -37.873160 -16.164433 7.430008 -5.058399 -35.728637 -9.287296 0.251228 -1.751385 -16.626519 -32.969788 11.240605 -57.765063 -48.351344 39.660163 -25.467753 0.859960 27.093886 9.623561 -29.073527 4.147302 -7.966343 68.956302 -4.443225 -1.308604 15.513342 -3.080465 -0.537368 -10.086478 5.938492 -1.777074 -32.752771 1.692294 33.479333 67.256096 30.055406 -4.678548 27.069922 3.364041 -0.457947 -12.151593 -1.833190
-20.262897 57.439271 30.407241 167.829236 -46.060437 -0.538820 5.975921 26.783748 4.299043 0.935579 4.919948 0.336692 1.489393 7.756347 0.564169 4.675735 22.202621 2.289611 1.517911 15.194104 -1.426006 3.356937 -7.534423 -3.213516 5.379099 3.154650 0.068913 30.155614 -40.437313 -25.317309 34.388645 -37.879438 -16.179133 7.424312 -5.048418 -35.714912 -9.300292 0.254642 -1.754569 -16.625382 -32.969664 11.233784 -57.778978 -48.348213 39.674522 -25.483273 0.853975 27.087326 9.638119 -29.074299 4.147441 -7.977312 68.958222 -4.460184 -1.310113 15.515751 -3.071952 -0.544692 -10.087377 5.942145 -1.765811 -32.748416 1.672843 33.522807 67.224863 30.101657 -4.367425 27.092186 3.396894 -0.427840 -12.184679 -1.820829
-20.262936 57.437682 30.410058 167.829587 -46.062478 -0.524503 5.970962 26.778837 4.296893 0.936772 4.918715 0.340170 1.488014 7.759084 0.560575 4.675212 22.202587 2.290435 1.512901 15.191625 -1.424923 3.340410 -7.544757 -3.207085 5.396674 3.155635 0.083130 30.153369 -40.422784 -25.332387 34.410805 -37.883475 -16.193666 7.421207 -5.043857 -35.701230 -9.309741 0.261873 -1.755455 -16.626631 -32.969625 11.224237 -57.775793 -48.348258 39.702043 -25.488399 0.842953 27.080569 9.661414 -29.076280 4.140689 -8.010392 68.962226 -4.497967 -1.308518 15.516510 -3.060628 -0.546332 -10.088307 5.946123 -1.753707 -32.745413 1.650287 33.539715 67.204718 30.129693 -4.186492 27.107988 3.432044 -0.436199 -12.214121 -1.836828
-20.266255 57.435429 30.412466 167.832718 -46.062760 -0.494615 5.953239 26.774069 4.273470 0.936302 4.923156 0.334659 1.492244 7.756414 0.568701 4.675736 22.204340 2.293029 1.503582 15.170845 -1.412534 3.325670 -7.535859 -3.216648 5.394573 3.155402 0.084227 30.150397 -40.413479 -25.331004 34.446971 -37.894990 -16.218320 7.414436 -5.034587 -35.688319 -9.320000 0.267004 -1.758508 -16.611939 -32.970349 11.207793 -57.778304 -48.356049 39.706342 -25.489868 0.841411 27.088948 9.693750 -29.080583 4.105558 -8.045172 68.974308 -4.530053 -1.303557 15.515403 -3.053988 -0.535972 -10.092579 5.948893 -1.751565 -32.744979 1.606657 33.584115 67.179265 30.170680 -4.054455 27.129098 3.488687 -0.476960 -12.247722 -1.872806
-20.266518 57.433337 30.414987 167.822091 -46.067783 -0.474643 5.954448 26.776210 4.265947 0.936755 4.923286 0.334979 1.495022 7.745451 0.584007 4.675283 22.204195 2.295709 1.479114 15.169913 -1.417860 3.330350 -7.524409 -3.227299 5.388100 3.162483 0.081248 30.147539 -40.398321 -25.327261 34.490532 -37.914043 -16.252063 7.405766 -5.018096 -35.676215 -9.328636 0.279676 -1.773202 -16.601879 -32.966582 11.191987 -57.788602 -48.358864 39.715540 -25.460381 0.848910 27.106724 9.729051 -29.083416 4.100122 -8.091197 68.979908 -4.576508 -1.305149 15.523140 -3.042836 -0.533324 -10.099577 5.952884 -1.739831 -32.740396 1.593206 33.593977 67.170135 30.183386 -3.993665 27.141073 3.517304 -0.494000 -12.277343 -1.898794
